%
M48
M72
T01C0.1969
T02C0.1260
T03C0.0420
T04C0.0394
T05C0.0400
T06C0.0276
T07C0.0433
T08C0.0315
T09C0.0236
%
T01
X567Y1372
X566Y2018
T02
X475Y311
X476Y3066
X4177Y3065
X4176Y310
T03
X3876Y1181
X3876Y1281
X3876Y1381
X3876Y1481
X3876Y1581
X3876Y1681
X3876Y1781
X3876Y1881
X3876Y1981
X3876Y2081
X3776Y2081
X3776Y1981
X3776Y1881
X3776Y1781
X3776Y1681
X3776Y1581
X3776Y1481
X3776Y1381
X3776Y1281
X3776Y1181
T04
X3882Y678
X3982Y678
X4082Y678
X2610Y1020
X2510Y1020
X2410Y1020
X2310Y1020
X2087Y1007
X2087Y1107
X2087Y1207
X1873Y1193
X1873Y1293
X1873Y1393
X1873Y1493
X1928Y1692
X2000Y1861
X1418Y1798
X1318Y1798
X1218Y1798
X1118Y1798
X941Y2075
X941Y2175
X941Y2275
X766Y2275
X766Y2175
X766Y2075
X1691Y2393
X1791Y2393
X1891Y2393
X1991Y2393
X1873Y1093
X1873Y993
T05
X1414Y945
X1314Y945
X1214Y945
X1114Y945
X1014Y945
X914Y945
X814Y945
X714Y945
X614Y945
X666Y575
X766Y575
X866Y575
X966Y575
X1066Y575
X1166Y575
X1266Y575
X1366Y575
X1466Y575
X1566Y575
X1666Y575
X1766Y575
X1866Y575
X1966Y575
X2066Y575
X2166Y575
X2266Y575
X2366Y575
X2466Y575
X2566Y575
X2566Y475
X2466Y475
X2366Y475
X2266Y475
X2166Y475
X2066Y475
X1966Y475
X1866Y475
X1766Y475
X1666Y475
X1566Y475
X1466Y475
X1366Y475
X1266Y475
X1166Y475
X1066Y475
X966Y475
X866Y475
X766Y475
X666Y475
X714Y1545
X814Y1545
X914Y1545
X1014Y1545
X1114Y1545
X1214Y1545
X1314Y1545
X1414Y1545
X614Y1545
X670Y2868
X770Y2868
X870Y2868
X970Y2868
X970Y2968
X870Y2968
X770Y2968
X670Y2968
X1070Y2968
X1070Y2868
X1170Y2868
X1270Y2868
X1370Y2868
X1370Y2968
X1270Y2968
X1170Y2968
X1470Y2968
X1470Y2868
X1570Y2868
X1670Y2868
X1770Y2868
X1770Y2968
X1670Y2968
X1570Y2968
X1870Y2968
X1870Y2868
X1970Y2868
X2070Y2868
X2170Y2868
X2170Y2968
X2070Y2968
X1970Y2968
X2270Y2968
X2270Y2868
X2370Y2868
X2470Y2868
X2570Y2868
X2570Y2968
X2470Y2968
X2370Y2968
T06
X2768Y2672
X2968Y2672
X3068Y2672
X3168Y2672
X3168Y2472
X3068Y2472
X2968Y2472
X2768Y2472
X2768Y2299
X2968Y2299
X3068Y2299
X3168Y2299
X3168Y2099
X3068Y2099
X2968Y2099
X2768Y2099
T07
X2626Y2146
X2624Y2244
X2641Y2520
X2639Y2619
X946Y1914
X948Y1815
X767Y1815
X765Y1914
X3916Y844
X4014Y846
T08
X2897Y1179
X2707Y1179
T09
X2493Y1192
X2373Y1245
X2324Y1259
X2270Y1280
X2257Y1178
X2267Y1112
X2179Y1275
X1979Y1354
X2059Y1450
X2075Y1505
X1973Y1474
X2226Y1467
X2314Y1526
X2407Y1526
X2392Y1643
X2314Y1641
X2243Y1733
X2223Y1878
X2242Y2040
X2298Y2138
X2447Y2230
X2421Y2331
X2416Y2430
X2242Y2485
X2160Y2492
X2084Y2545
X2172Y2651
X2077Y2715
X2005Y2691
X1735Y2720
X1552Y2754
X1505Y2596
X1418Y2545
X1259Y2543
X1156Y2546
X1114Y2420
X1262Y2307
X1227Y2215
X1444Y2200
X1435Y2399
X1656Y2109
X1863Y1980
X2035Y2059
X2101Y2188
X2248Y2299
X2421Y1986
X2607Y1839
X2476Y1737
X2535Y1713
X2542Y1649
X2792Y1760
X2968Y1937
X2957Y2008
X3024Y2172
X2886Y2312
X2854Y2363
X2910Y2416
X3016Y2540
X2878Y2689
X2738Y2874
X2666Y2861
X2820Y3028
X2754Y3126
X3073Y2968
X3263Y2774
X3227Y2724
X3320Y2843
X3341Y2909
X3456Y2863
X3809Y2609
X3640Y2521
X3494Y2524
X3512Y2368
X3580Y2278
X3674Y2180
X3581Y2083
X3621Y2018
X3680Y2017
X3679Y1968
X3621Y1968
X3511Y1886
X3439Y1931
X3429Y1781
X3347Y1730
X3402Y1683
X3401Y1585
X3322Y1530
X3268Y1479
X3164Y1476
X3045Y1482
X3205Y1614
X3164Y1689
X3216Y1814
X3398Y1482
X3399Y1383
X3347Y1331
X3307Y1279
X3264Y1228
X3397Y1280
X3403Y1118
X3573Y994
X3623Y837
X3718Y580
X3696Y352
X3613Y309
X3930Y323
X3401Y579
X3329Y635
X3261Y698
X3199Y759
X3135Y804
X3054Y854
X2987Y904
X2963Y998
X2791Y950
X2718Y1009
X2617Y882
X2587Y664
X2687Y590
X2731Y677
X2481Y678
X2410Y686
X2357Y716
X2233Y721
X2140Y719
X2072Y696
X1718Y389
X1841Y319
X2051Y318
X2250Y318
X2392Y317
X2573Y374
X1511Y377
X1267Y380
X1117Y383
X916Y383
X714Y384
X587Y527
X509Y720
X934Y671
X974Y731
X587Y1150
X946Y1239
X1335Y1183
X1350Y1316
X1363Y1429
X1563Y1278
X1624Y1320
X1630Y1680
X1564Y1746
X1509Y1705
X1268Y1905
X1078Y1967
X526Y1752
X470Y2747
X859Y2754
X1057Y2761
X1269Y3059
X1370Y3055
X1518Y3040
X1623Y3041
X1035Y3129
X603Y3138
X2504Y2687
X2568Y2672
X2729Y2015
X2796Y1427
X2627Y1388
X2546Y1422
X2476Y1428
X3441Y2231
X4058Y2307
X4067Y1726
X4068Y1626
X4067Y1526
X4065Y1426
X4066Y1325
X4070Y1230
X4113Y988
M30
