G75*
G70*
%OFA0B0*%
%FSLAX24Y24*%
%IPPOS*%
%LPD*%
%AMOC8*
5,1,8,0,0,1.08239X$1,22.5*
%
%ADD10C,0.0080*%
%ADD11C,0.0000*%
%ADD12C,0.0030*%
%ADD13C,0.0040*%
%ADD14C,0.0050*%
D10*
X003566Y001913D02*
X042944Y001925D01*
X042944Y031846D01*
X003574Y031846D01*
X003566Y001913D01*
D11*
X004121Y003106D02*
X004124Y003163D01*
X004131Y003220D01*
X004144Y003276D01*
X004162Y003330D01*
X004185Y003383D01*
X004213Y003433D01*
X004245Y003481D01*
X004281Y003525D01*
X004321Y003566D01*
X004365Y003604D01*
X004411Y003637D01*
X004461Y003665D01*
X004513Y003689D01*
X004567Y003709D01*
X004623Y003723D01*
X004679Y003732D01*
X004737Y003736D01*
X004794Y003735D01*
X004851Y003728D01*
X004907Y003716D01*
X004962Y003700D01*
X005015Y003678D01*
X005066Y003652D01*
X005114Y003621D01*
X005160Y003586D01*
X005202Y003546D01*
X005240Y003504D01*
X005274Y003457D01*
X005304Y003408D01*
X005329Y003357D01*
X005349Y003303D01*
X005365Y003248D01*
X005375Y003192D01*
X005380Y003135D01*
X005380Y003077D01*
X005375Y003020D01*
X005365Y002964D01*
X005349Y002909D01*
X005329Y002855D01*
X005304Y002804D01*
X005274Y002755D01*
X005240Y002708D01*
X005202Y002666D01*
X005160Y002626D01*
X005114Y002591D01*
X005066Y002560D01*
X005015Y002534D01*
X004962Y002512D01*
X004907Y002496D01*
X004851Y002484D01*
X004794Y002477D01*
X004737Y002476D01*
X004679Y002480D01*
X004623Y002489D01*
X004567Y002503D01*
X004513Y002523D01*
X004461Y002547D01*
X004411Y002575D01*
X004365Y002608D01*
X004321Y002646D01*
X004281Y002687D01*
X004245Y002731D01*
X004213Y002779D01*
X004185Y002829D01*
X004162Y002882D01*
X004144Y002936D01*
X004131Y002992D01*
X004124Y003049D01*
X004121Y003106D01*
X004685Y013716D02*
X004689Y013805D01*
X004701Y013894D01*
X004721Y013981D01*
X004750Y014067D01*
X004785Y014149D01*
X004828Y014227D01*
X004878Y014302D01*
X004935Y014371D01*
X004997Y014435D01*
X005066Y014493D01*
X005139Y014545D01*
X005216Y014590D01*
X005298Y014627D01*
X005382Y014657D01*
X005469Y014679D01*
X005557Y014694D01*
X005647Y014700D01*
X005736Y014698D01*
X005825Y014688D01*
X005913Y014669D01*
X005999Y014643D01*
X006081Y014609D01*
X006161Y014568D01*
X006236Y014520D01*
X006307Y014465D01*
X006373Y014404D01*
X006432Y014337D01*
X006486Y014265D01*
X006532Y014188D01*
X006572Y014108D01*
X006603Y014024D01*
X006628Y013938D01*
X006644Y013850D01*
X006652Y013761D01*
X006652Y013671D01*
X006644Y013582D01*
X006628Y013494D01*
X006603Y013408D01*
X006572Y013324D01*
X006532Y013244D01*
X006486Y013167D01*
X006432Y013095D01*
X006373Y013028D01*
X006307Y012967D01*
X006236Y012912D01*
X006161Y012864D01*
X006081Y012823D01*
X005999Y012789D01*
X005913Y012763D01*
X005825Y012744D01*
X005736Y012734D01*
X005647Y012732D01*
X005557Y012738D01*
X005469Y012753D01*
X005382Y012775D01*
X005298Y012805D01*
X005216Y012842D01*
X005139Y012887D01*
X005066Y012939D01*
X004997Y012997D01*
X004935Y013061D01*
X004878Y013130D01*
X004828Y013205D01*
X004785Y013283D01*
X004750Y013365D01*
X004721Y013451D01*
X004701Y013538D01*
X004689Y013627D01*
X004685Y013716D01*
X004673Y020185D02*
X004677Y020274D01*
X004689Y020363D01*
X004709Y020450D01*
X004738Y020536D01*
X004773Y020618D01*
X004816Y020696D01*
X004866Y020771D01*
X004923Y020840D01*
X004985Y020904D01*
X005054Y020962D01*
X005127Y021014D01*
X005204Y021059D01*
X005286Y021096D01*
X005370Y021126D01*
X005457Y021148D01*
X005545Y021163D01*
X005635Y021169D01*
X005724Y021167D01*
X005813Y021157D01*
X005901Y021138D01*
X005987Y021112D01*
X006069Y021078D01*
X006149Y021037D01*
X006224Y020989D01*
X006295Y020934D01*
X006361Y020873D01*
X006420Y020806D01*
X006474Y020734D01*
X006520Y020657D01*
X006560Y020577D01*
X006591Y020493D01*
X006616Y020407D01*
X006632Y020319D01*
X006640Y020230D01*
X006640Y020140D01*
X006632Y020051D01*
X006616Y019963D01*
X006591Y019877D01*
X006560Y019793D01*
X006520Y019713D01*
X006474Y019636D01*
X006420Y019564D01*
X006361Y019497D01*
X006295Y019436D01*
X006224Y019381D01*
X006149Y019333D01*
X006069Y019292D01*
X005987Y019258D01*
X005901Y019232D01*
X005813Y019213D01*
X005724Y019203D01*
X005635Y019201D01*
X005545Y019207D01*
X005457Y019222D01*
X005370Y019244D01*
X005286Y019274D01*
X005204Y019311D01*
X005127Y019356D01*
X005054Y019408D01*
X004985Y019466D01*
X004923Y019530D01*
X004866Y019599D01*
X004816Y019674D01*
X004773Y019752D01*
X004738Y019834D01*
X004709Y019920D01*
X004689Y020007D01*
X004677Y020096D01*
X004673Y020185D01*
X004129Y030661D02*
X004132Y030718D01*
X004139Y030775D01*
X004152Y030831D01*
X004170Y030885D01*
X004193Y030938D01*
X004221Y030988D01*
X004253Y031036D01*
X004289Y031080D01*
X004329Y031121D01*
X004373Y031159D01*
X004419Y031192D01*
X004469Y031220D01*
X004521Y031244D01*
X004575Y031264D01*
X004631Y031278D01*
X004687Y031287D01*
X004745Y031291D01*
X004802Y031290D01*
X004859Y031283D01*
X004915Y031271D01*
X004970Y031255D01*
X005023Y031233D01*
X005074Y031207D01*
X005122Y031176D01*
X005168Y031141D01*
X005210Y031101D01*
X005248Y031059D01*
X005282Y031012D01*
X005312Y030963D01*
X005337Y030912D01*
X005357Y030858D01*
X005373Y030803D01*
X005383Y030747D01*
X005388Y030690D01*
X005388Y030632D01*
X005383Y030575D01*
X005373Y030519D01*
X005357Y030464D01*
X005337Y030410D01*
X005312Y030359D01*
X005282Y030310D01*
X005248Y030263D01*
X005210Y030221D01*
X005168Y030181D01*
X005122Y030146D01*
X005074Y030115D01*
X005023Y030089D01*
X004970Y030067D01*
X004915Y030051D01*
X004859Y030039D01*
X004802Y030032D01*
X004745Y030031D01*
X004687Y030035D01*
X004631Y030044D01*
X004575Y030058D01*
X004521Y030078D01*
X004469Y030102D01*
X004419Y030130D01*
X004373Y030163D01*
X004329Y030201D01*
X004289Y030242D01*
X004253Y030286D01*
X004221Y030334D01*
X004193Y030384D01*
X004170Y030437D01*
X004152Y030491D01*
X004139Y030547D01*
X004132Y030604D01*
X004129Y030661D01*
X041137Y030653D02*
X041140Y030710D01*
X041147Y030767D01*
X041160Y030823D01*
X041178Y030877D01*
X041201Y030930D01*
X041229Y030980D01*
X041261Y031028D01*
X041297Y031072D01*
X041337Y031113D01*
X041381Y031151D01*
X041427Y031184D01*
X041477Y031212D01*
X041529Y031236D01*
X041583Y031256D01*
X041639Y031270D01*
X041695Y031279D01*
X041753Y031283D01*
X041810Y031282D01*
X041867Y031275D01*
X041923Y031263D01*
X041978Y031247D01*
X042031Y031225D01*
X042082Y031199D01*
X042130Y031168D01*
X042176Y031133D01*
X042218Y031093D01*
X042256Y031051D01*
X042290Y031004D01*
X042320Y030955D01*
X042345Y030904D01*
X042365Y030850D01*
X042381Y030795D01*
X042391Y030739D01*
X042396Y030682D01*
X042396Y030624D01*
X042391Y030567D01*
X042381Y030511D01*
X042365Y030456D01*
X042345Y030402D01*
X042320Y030351D01*
X042290Y030302D01*
X042256Y030255D01*
X042218Y030213D01*
X042176Y030173D01*
X042130Y030138D01*
X042082Y030107D01*
X042031Y030081D01*
X041978Y030059D01*
X041923Y030043D01*
X041867Y030031D01*
X041810Y030024D01*
X041753Y030023D01*
X041695Y030027D01*
X041639Y030036D01*
X041583Y030050D01*
X041529Y030070D01*
X041477Y030094D01*
X041427Y030122D01*
X041381Y030155D01*
X041337Y030193D01*
X041297Y030234D01*
X041261Y030278D01*
X041229Y030326D01*
X041201Y030376D01*
X041178Y030429D01*
X041160Y030483D01*
X041147Y030539D01*
X041140Y030596D01*
X041137Y030653D01*
X041129Y003102D02*
X041132Y003159D01*
X041139Y003216D01*
X041152Y003272D01*
X041170Y003326D01*
X041193Y003379D01*
X041221Y003429D01*
X041253Y003477D01*
X041289Y003521D01*
X041329Y003562D01*
X041373Y003600D01*
X041419Y003633D01*
X041469Y003661D01*
X041521Y003685D01*
X041575Y003705D01*
X041631Y003719D01*
X041687Y003728D01*
X041745Y003732D01*
X041802Y003731D01*
X041859Y003724D01*
X041915Y003712D01*
X041970Y003696D01*
X042023Y003674D01*
X042074Y003648D01*
X042122Y003617D01*
X042168Y003582D01*
X042210Y003542D01*
X042248Y003500D01*
X042282Y003453D01*
X042312Y003404D01*
X042337Y003353D01*
X042357Y003299D01*
X042373Y003244D01*
X042383Y003188D01*
X042388Y003131D01*
X042388Y003073D01*
X042383Y003016D01*
X042373Y002960D01*
X042357Y002905D01*
X042337Y002851D01*
X042312Y002800D01*
X042282Y002751D01*
X042248Y002704D01*
X042210Y002662D01*
X042168Y002622D01*
X042122Y002587D01*
X042074Y002556D01*
X042023Y002530D01*
X041970Y002508D01*
X041915Y002492D01*
X041859Y002480D01*
X041802Y002473D01*
X041745Y002472D01*
X041687Y002476D01*
X041631Y002485D01*
X041575Y002499D01*
X041521Y002519D01*
X041469Y002543D01*
X041419Y002571D01*
X041373Y002604D01*
X041329Y002642D01*
X041289Y002683D01*
X041253Y002727D01*
X041221Y002775D01*
X041193Y002825D01*
X041170Y002878D01*
X041152Y002932D01*
X041139Y002988D01*
X041132Y003045D01*
X041129Y003102D01*
D12*
X039012Y004827D02*
X038964Y004779D01*
X038770Y004779D01*
X038722Y004827D01*
X038722Y004924D01*
X038770Y004973D01*
X038964Y004973D01*
X039012Y004924D01*
X039012Y004827D01*
X038915Y004876D02*
X039012Y004973D01*
X039012Y005074D02*
X039012Y005267D01*
X039012Y005170D02*
X038722Y005170D01*
X038819Y005074D01*
X038195Y003190D02*
X038098Y003190D01*
X038050Y003142D01*
X038050Y003093D01*
X038098Y003045D01*
X038243Y003045D01*
X038243Y002948D02*
X038243Y003142D01*
X038195Y003190D01*
X038243Y002948D02*
X038195Y002900D01*
X038098Y002900D01*
X038050Y002948D01*
X037949Y002900D02*
X037852Y002997D01*
X037900Y002997D02*
X037755Y002997D01*
X037755Y002900D02*
X037755Y003190D01*
X037900Y003190D01*
X037949Y003142D01*
X037949Y003045D01*
X037900Y002997D01*
X039171Y009122D02*
X039316Y009122D01*
X039364Y009170D01*
X039364Y009363D01*
X039316Y009412D01*
X039171Y009412D01*
X039171Y009122D01*
X039466Y009122D02*
X039659Y009122D01*
X039562Y009122D02*
X039562Y009412D01*
X039466Y009315D01*
X039760Y009363D02*
X039809Y009412D01*
X039905Y009412D01*
X039954Y009363D01*
X039954Y009315D01*
X039760Y009122D01*
X039954Y009122D01*
X042061Y014821D02*
X042061Y015006D01*
X042122Y015068D01*
X042246Y015068D01*
X042308Y015006D01*
X042308Y014821D01*
X042431Y014821D02*
X042061Y014821D01*
X042308Y014945D02*
X042431Y015068D01*
X042369Y015189D02*
X042308Y015189D01*
X042246Y015251D01*
X042246Y015375D01*
X042308Y015436D01*
X042369Y015436D01*
X042431Y015375D01*
X042431Y015251D01*
X042369Y015189D01*
X042246Y015251D02*
X042184Y015189D01*
X042122Y015189D01*
X042061Y015251D01*
X042061Y015375D01*
X042122Y015436D01*
X042184Y015436D01*
X042246Y015375D01*
X042366Y017437D02*
X042737Y017437D01*
X042737Y017684D01*
X042737Y017806D02*
X042737Y018052D01*
X042737Y018174D02*
X042737Y018359D01*
X042675Y018421D01*
X042428Y018421D01*
X042366Y018359D01*
X042366Y018174D01*
X042737Y018174D01*
X042551Y017929D02*
X042551Y017806D01*
X042366Y017806D02*
X042737Y017806D01*
X042366Y017806D02*
X042366Y018052D01*
X042428Y018542D02*
X042366Y018604D01*
X042366Y018727D01*
X042428Y018789D01*
X042490Y018789D01*
X042551Y018727D01*
X042613Y018789D01*
X042675Y018789D01*
X042737Y018727D01*
X042737Y018604D01*
X042675Y018542D01*
X042551Y018666D02*
X042551Y018727D01*
X040844Y018588D02*
X040783Y018650D01*
X040536Y018650D01*
X040474Y018588D01*
X040474Y018403D01*
X040844Y018403D01*
X040844Y018588D01*
X040659Y018771D02*
X040474Y018956D01*
X040844Y018956D01*
X040659Y019018D02*
X040659Y018771D01*
X040474Y018282D02*
X040474Y018035D01*
X040844Y018035D01*
X040844Y018282D01*
X040659Y018158D02*
X040659Y018035D01*
X040844Y017913D02*
X040844Y017666D01*
X040474Y017666D01*
X035364Y020664D02*
X035364Y020955D01*
X035170Y020955D02*
X035364Y020664D01*
X035170Y020664D02*
X035170Y020955D01*
X035069Y020906D02*
X035069Y020810D01*
X035021Y020761D01*
X034876Y020761D01*
X034973Y020761D02*
X035069Y020664D01*
X034876Y020664D02*
X034876Y020955D01*
X035021Y020955D01*
X035069Y020906D01*
X034775Y020906D02*
X034726Y020955D01*
X034629Y020955D01*
X034581Y020906D01*
X034581Y020858D01*
X034629Y020810D01*
X034726Y020810D01*
X034775Y020761D01*
X034775Y020713D01*
X034726Y020664D01*
X034629Y020664D01*
X034581Y020713D01*
X030424Y020674D02*
X030424Y020625D01*
X030376Y020577D01*
X030424Y020529D01*
X030424Y020480D01*
X030376Y020432D01*
X030279Y020432D01*
X030231Y020480D01*
X030129Y020432D02*
X030033Y020529D01*
X030081Y020529D02*
X029936Y020529D01*
X029936Y020432D02*
X029936Y020722D01*
X030081Y020722D01*
X030129Y020674D01*
X030129Y020577D01*
X030081Y020529D01*
X030231Y020674D02*
X030279Y020722D01*
X030376Y020722D01*
X030424Y020674D01*
X030376Y020577D02*
X030327Y020577D01*
X025596Y021411D02*
X025596Y021556D01*
X025548Y021604D01*
X025354Y021604D01*
X025306Y021556D01*
X025306Y021411D01*
X025596Y021411D01*
X025548Y021705D02*
X025596Y021754D01*
X025596Y021850D01*
X025548Y021899D01*
X025451Y021899D01*
X025402Y021850D01*
X025402Y021802D01*
X025451Y021705D01*
X025306Y021705D01*
X025306Y021899D01*
X025286Y022574D02*
X025093Y022574D01*
X025286Y022767D01*
X025286Y022815D01*
X025238Y022864D01*
X025141Y022864D01*
X025093Y022815D01*
X024992Y022815D02*
X024992Y022719D01*
X024943Y022670D01*
X024798Y022670D01*
X024798Y022574D02*
X024798Y022864D01*
X024943Y022864D01*
X024992Y022815D01*
X024895Y022670D02*
X024992Y022574D01*
X025035Y024755D02*
X024938Y024851D01*
X024986Y024851D02*
X024841Y024851D01*
X024841Y024755D02*
X024841Y025045D01*
X024986Y025045D01*
X025035Y024996D01*
X025035Y024900D01*
X024986Y024851D01*
X025136Y024755D02*
X025329Y024755D01*
X025233Y024755D02*
X025233Y025045D01*
X025136Y024948D01*
X025377Y025379D02*
X025377Y025524D01*
X025425Y025573D01*
X025618Y025573D01*
X025667Y025524D01*
X025667Y025379D01*
X025377Y025379D01*
X025522Y025674D02*
X025522Y025867D01*
X025667Y025819D02*
X025377Y025819D01*
X025522Y025674D01*
X019143Y025661D02*
X018950Y025661D01*
X019143Y025855D01*
X019143Y025903D01*
X019095Y025952D01*
X018998Y025952D01*
X018950Y025903D01*
X018849Y025903D02*
X018800Y025952D01*
X018655Y025952D01*
X018655Y025661D01*
X018800Y025661D01*
X018849Y025710D01*
X018849Y025903D01*
X013683Y025445D02*
X013489Y025445D01*
X013586Y025445D02*
X013586Y025735D01*
X013489Y025638D01*
X013388Y025687D02*
X013388Y025493D01*
X013340Y025445D01*
X013195Y025445D01*
X013195Y025735D01*
X013340Y025735D01*
X013388Y025687D01*
X011135Y025573D02*
X011135Y025524D01*
X011087Y025476D01*
X011135Y025427D01*
X011135Y025379D01*
X011087Y025331D01*
X010990Y025331D01*
X010942Y025379D01*
X010841Y025379D02*
X010841Y025573D01*
X010792Y025621D01*
X010647Y025621D01*
X010647Y025331D01*
X010792Y025331D01*
X010841Y025379D01*
X010942Y025573D02*
X010990Y025621D01*
X011087Y025621D01*
X011135Y025573D01*
X011087Y025476D02*
X011039Y025476D01*
X004461Y021419D02*
X004461Y021234D01*
X004090Y021234D01*
X004090Y021419D01*
X004152Y021480D01*
X004214Y021480D01*
X004275Y021419D01*
X004275Y021234D01*
X004275Y021112D02*
X004337Y021050D01*
X004337Y020865D01*
X004461Y020865D02*
X004090Y020865D01*
X004090Y021050D01*
X004152Y021112D01*
X004275Y021112D01*
X004275Y021419D02*
X004337Y021480D01*
X004399Y021480D01*
X004461Y021419D01*
X004031Y019633D02*
X004031Y019386D01*
X004031Y019264D02*
X004031Y019017D01*
X004402Y019017D01*
X004402Y019264D01*
X004216Y019141D02*
X004216Y019017D01*
X004278Y018896D02*
X004340Y018896D01*
X004402Y018834D01*
X004402Y018711D01*
X004340Y018649D01*
X004402Y018528D02*
X004402Y018281D01*
X004031Y018281D01*
X004031Y018528D01*
X004093Y018649D02*
X004155Y018649D01*
X004216Y018711D01*
X004216Y018834D01*
X004278Y018896D01*
X004093Y018896D02*
X004031Y018834D01*
X004031Y018711D01*
X004093Y018649D01*
X004216Y018404D02*
X004216Y018281D01*
X004216Y018159D02*
X004278Y018098D01*
X004278Y017912D01*
X004402Y017912D02*
X004031Y017912D01*
X004031Y018098D01*
X004093Y018159D01*
X004216Y018159D01*
X004278Y018036D02*
X004402Y018159D01*
X004402Y019509D02*
X004031Y019509D01*
X008333Y019052D02*
X008382Y018956D01*
X008478Y018859D01*
X008478Y019004D01*
X008527Y019052D01*
X008575Y019052D01*
X008624Y019004D01*
X008624Y018907D01*
X008575Y018859D01*
X008478Y018859D01*
X008382Y018758D02*
X008575Y018758D01*
X008624Y018709D01*
X008624Y018564D01*
X008333Y018564D01*
X008333Y018709D01*
X008382Y018758D01*
X010148Y018709D02*
X010148Y018564D01*
X010438Y018564D01*
X010438Y018709D01*
X010390Y018758D01*
X010197Y018758D01*
X010148Y018709D01*
X010148Y018859D02*
X010148Y019052D01*
X010197Y019052D01*
X010390Y018859D01*
X010438Y018859D01*
X016830Y018877D02*
X016830Y018587D01*
X016830Y018683D02*
X016975Y018683D01*
X017024Y018732D01*
X017024Y018828D01*
X016975Y018877D01*
X016830Y018877D01*
X016927Y018683D02*
X017024Y018587D01*
X017125Y018587D02*
X017318Y018587D01*
X017420Y018635D02*
X017420Y018828D01*
X017468Y018877D01*
X017565Y018877D01*
X017613Y018828D01*
X017613Y018732D02*
X017516Y018732D01*
X017613Y018732D02*
X017613Y018635D01*
X017565Y018587D01*
X017468Y018587D01*
X017420Y018635D01*
X017222Y018732D02*
X017125Y018732D01*
X017125Y018877D02*
X017125Y018587D01*
X017125Y018877D02*
X017318Y018877D01*
X017714Y018780D02*
X017811Y018877D01*
X017811Y018587D01*
X017714Y018587D02*
X017908Y018587D01*
X018009Y018587D02*
X018009Y018780D01*
X018106Y018877D01*
X018202Y018780D01*
X018202Y018587D01*
X018202Y018732D02*
X018009Y018732D01*
X017241Y017589D02*
X017241Y017299D01*
X017337Y017299D02*
X017144Y017299D01*
X017043Y017347D02*
X016994Y017299D01*
X016898Y017299D01*
X016849Y017347D01*
X016849Y017541D01*
X016898Y017589D01*
X016994Y017589D01*
X017043Y017541D01*
X017144Y017493D02*
X017241Y017589D01*
X017171Y015991D02*
X017074Y015991D01*
X017026Y015943D01*
X016925Y015943D02*
X016876Y015991D01*
X016779Y015991D01*
X016731Y015943D01*
X016731Y015749D01*
X016779Y015701D01*
X016876Y015701D01*
X016925Y015749D01*
X017026Y015701D02*
X017219Y015894D01*
X017219Y015943D01*
X017171Y015991D01*
X017219Y015701D02*
X017026Y015701D01*
X017655Y012282D02*
X017655Y012089D01*
X017800Y012089D01*
X017752Y012186D01*
X017752Y012234D01*
X017800Y012282D01*
X017897Y012282D01*
X017945Y012234D01*
X017945Y012137D01*
X017897Y012089D01*
X017800Y011988D02*
X017849Y011939D01*
X017849Y011794D01*
X017945Y011794D02*
X017655Y011794D01*
X017655Y011939D01*
X017704Y011988D01*
X017800Y011988D01*
X017655Y011693D02*
X017655Y011596D01*
X017655Y011645D02*
X017897Y011645D01*
X017945Y011596D01*
X017945Y011548D01*
X017897Y011499D01*
X019698Y011079D02*
X019747Y010982D01*
X019844Y010885D01*
X019844Y011030D01*
X019892Y011079D01*
X019940Y011079D01*
X019989Y011030D01*
X019989Y010934D01*
X019940Y010885D01*
X019844Y010885D01*
X019844Y010784D02*
X019892Y010736D01*
X019892Y010591D01*
X019989Y010591D02*
X019698Y010591D01*
X019698Y010736D01*
X019747Y010784D01*
X019844Y010784D01*
X019698Y010489D02*
X019698Y010393D01*
X019698Y010441D02*
X019940Y010441D01*
X019989Y010393D01*
X019989Y010344D01*
X019940Y010296D01*
X019731Y009293D02*
X019634Y009244D01*
X019538Y009148D01*
X019683Y009148D01*
X019731Y009099D01*
X019731Y009051D01*
X019683Y009003D01*
X019586Y009003D01*
X019538Y009051D01*
X019538Y009148D01*
X019436Y009148D02*
X019388Y009099D01*
X019243Y009099D01*
X019243Y009003D02*
X019243Y009293D01*
X019388Y009293D01*
X019436Y009244D01*
X019436Y009148D01*
X019340Y009099D02*
X019436Y009003D01*
X017720Y008714D02*
X017526Y008714D01*
X017623Y008714D02*
X017623Y009004D01*
X017526Y008907D01*
X017425Y008956D02*
X017377Y009004D01*
X017231Y009004D01*
X017231Y008714D01*
X017377Y008714D01*
X017425Y008762D01*
X017425Y008956D01*
X017130Y009004D02*
X016937Y009004D01*
X016937Y008714D01*
X017130Y008714D01*
X017034Y008859D02*
X016937Y008859D01*
X016836Y008714D02*
X016642Y008714D01*
X016642Y009004D01*
X016666Y007378D02*
X016666Y007088D01*
X016859Y007088D01*
X016960Y007088D02*
X016960Y007378D01*
X017154Y007378D01*
X017255Y007378D02*
X017400Y007378D01*
X017449Y007330D01*
X017449Y007136D01*
X017400Y007088D01*
X017255Y007088D01*
X017255Y007378D01*
X017057Y007233D02*
X016960Y007233D01*
X016960Y007088D02*
X017154Y007088D01*
X017550Y007088D02*
X017743Y007281D01*
X017743Y007330D01*
X017695Y007378D01*
X017598Y007378D01*
X017550Y007330D01*
X017550Y007088D02*
X017743Y007088D01*
X019255Y007021D02*
X019255Y006731D01*
X019255Y006828D02*
X019400Y006828D01*
X019448Y006876D01*
X019448Y006973D01*
X019400Y007021D01*
X019255Y007021D01*
X019351Y006828D02*
X019448Y006731D01*
X019549Y006731D02*
X019549Y006779D01*
X019743Y006973D01*
X019743Y007021D01*
X019549Y007021D01*
X022354Y009890D02*
X022402Y009939D01*
X022402Y009987D01*
X022354Y010035D01*
X022112Y010035D01*
X022112Y009987D02*
X022112Y010084D01*
X022112Y010185D02*
X022112Y010330D01*
X022160Y010378D01*
X022257Y010378D01*
X022305Y010330D01*
X022305Y010185D01*
X022402Y010185D02*
X022112Y010185D01*
X022112Y010480D02*
X022112Y010673D01*
X022160Y010673D01*
X022354Y010480D01*
X022402Y010480D01*
X023188Y012231D02*
X023188Y012521D01*
X023333Y012521D01*
X023382Y012473D01*
X023382Y012376D01*
X023333Y012327D01*
X023188Y012327D01*
X023285Y012327D02*
X023382Y012231D01*
X023483Y012376D02*
X023676Y012376D01*
X023628Y012231D02*
X023628Y012521D01*
X023483Y012376D01*
X024220Y012363D02*
X024365Y012363D01*
X024413Y012411D01*
X024413Y012508D01*
X024365Y012556D01*
X024220Y012556D01*
X024220Y012266D01*
X024317Y012363D02*
X024413Y012266D01*
X024514Y012314D02*
X024563Y012266D01*
X024660Y012266D01*
X024708Y012314D01*
X024708Y012411D01*
X024660Y012460D01*
X024611Y012460D01*
X024514Y012411D01*
X024514Y012556D01*
X024708Y012556D01*
X027580Y010301D02*
X027774Y010011D01*
X027580Y010011D02*
X027774Y010301D01*
X027875Y010301D02*
X028068Y010301D01*
X027972Y010301D02*
X027972Y010011D01*
X028170Y010011D02*
X028170Y010204D01*
X028266Y010301D01*
X028363Y010204D01*
X028363Y010011D01*
X028464Y010011D02*
X028658Y010011D01*
X028759Y010011D02*
X028952Y010011D01*
X028856Y010011D02*
X028856Y010301D01*
X028759Y010204D01*
X028464Y010301D02*
X028464Y010011D01*
X028363Y010156D02*
X028170Y010156D01*
X024568Y015839D02*
X024327Y015839D01*
X024327Y016032D02*
X024568Y016032D01*
X024617Y015984D01*
X024617Y015887D01*
X024568Y015839D01*
X024617Y016134D02*
X024617Y016327D01*
X024617Y016230D02*
X024327Y016230D01*
X024423Y016134D01*
X024521Y002601D02*
X024376Y002601D01*
X024376Y002311D01*
X024521Y002311D01*
X024569Y002359D01*
X024569Y002553D01*
X024521Y002601D01*
X024670Y002553D02*
X024719Y002601D01*
X024815Y002601D01*
X024864Y002553D01*
X024864Y002504D01*
X024815Y002456D01*
X024719Y002456D01*
X024670Y002504D01*
X024670Y002553D01*
X024719Y002456D02*
X024670Y002408D01*
X024670Y002359D01*
X024719Y002311D01*
X024815Y002311D01*
X024864Y002359D01*
X024864Y002408D01*
X024815Y002456D01*
X023506Y002444D02*
X023360Y002444D01*
X023312Y002493D01*
X023312Y002541D01*
X023360Y002589D01*
X023457Y002589D01*
X023506Y002541D01*
X023506Y002348D01*
X023457Y002299D01*
X023360Y002299D01*
X023312Y002348D01*
X023211Y002348D02*
X023211Y002541D01*
X023163Y002589D01*
X023017Y002589D01*
X023017Y002299D01*
X023163Y002299D01*
X023211Y002348D01*
X021876Y002304D02*
X021827Y002256D01*
X021731Y002256D01*
X021682Y002304D01*
X021876Y002498D01*
X021876Y002304D01*
X021876Y002498D02*
X021827Y002546D01*
X021731Y002546D01*
X021682Y002498D01*
X021682Y002304D01*
X021581Y002256D02*
X021388Y002256D01*
X021484Y002256D02*
X021484Y002546D01*
X021388Y002449D01*
X021286Y002498D02*
X021238Y002546D01*
X021093Y002546D01*
X021093Y002256D01*
X021238Y002256D01*
X021286Y002304D01*
X021286Y002498D01*
X019616Y002228D02*
X019422Y002228D01*
X019519Y002228D02*
X019519Y002519D01*
X019422Y002422D01*
X019321Y002228D02*
X019128Y002228D01*
X019224Y002228D02*
X019224Y002519D01*
X019128Y002422D01*
X019026Y002470D02*
X018978Y002519D01*
X018833Y002519D01*
X018833Y002228D01*
X018978Y002228D01*
X019026Y002277D01*
X019026Y002470D01*
D13*
X026208Y006033D02*
X026438Y005803D01*
X026438Y006110D01*
X026285Y006264D02*
X026208Y006340D01*
X026208Y006494D01*
X026285Y006571D01*
X026591Y006264D01*
X026668Y006340D01*
X026668Y006494D01*
X026591Y006571D01*
X026285Y006571D01*
X026285Y006264D02*
X026591Y006264D01*
X026668Y006033D02*
X026208Y006033D01*
X026348Y004618D02*
X026271Y004541D01*
X026271Y004388D01*
X026348Y004311D01*
X026424Y004311D01*
X026501Y004388D01*
X026501Y004618D01*
X026654Y004618D02*
X026348Y004618D01*
X026654Y004618D02*
X026731Y004541D01*
X026731Y004388D01*
X026654Y004311D01*
X026654Y004157D02*
X026731Y004081D01*
X026731Y003927D01*
X026654Y003851D01*
X026501Y004004D02*
X026501Y004081D01*
X026578Y004157D01*
X026654Y004157D01*
X026501Y004081D02*
X026424Y004157D01*
X026348Y004157D01*
X026271Y004081D01*
X026271Y003927D01*
X026348Y003851D01*
X026261Y009040D02*
X026021Y009040D01*
X026141Y009040D02*
X026141Y009400D01*
X026021Y009280D01*
X025893Y009340D02*
X025833Y009400D01*
X025713Y009400D01*
X025653Y009340D01*
X025653Y009100D01*
X025713Y009040D01*
X025833Y009040D01*
X025893Y009100D01*
X025525Y009040D02*
X025284Y009040D01*
X025525Y009280D01*
X025525Y009340D01*
X025465Y009400D01*
X025344Y009400D01*
X025284Y009340D01*
X025159Y009400D02*
X025039Y009400D01*
X025099Y009400D02*
X025099Y009040D01*
X025039Y009040D02*
X025159Y009040D01*
X021287Y009131D02*
X021287Y009371D01*
X021227Y009431D01*
X021047Y009431D01*
X021047Y009071D01*
X021227Y009071D01*
X021287Y009131D01*
X020919Y009071D02*
X020919Y009431D01*
X020679Y009431D02*
X020679Y009071D01*
X020551Y009131D02*
X020551Y009251D01*
X020431Y009251D01*
X020551Y009131D02*
X020491Y009071D01*
X020371Y009071D01*
X020311Y009131D01*
X020311Y009371D01*
X020371Y009431D01*
X020491Y009431D01*
X020551Y009371D01*
X020679Y009431D02*
X020919Y009071D01*
X019931Y011354D02*
X019991Y011415D01*
X019991Y011535D01*
X019931Y011595D01*
X019871Y011595D01*
X019811Y011535D01*
X019811Y011415D01*
X019751Y011354D01*
X019691Y011354D01*
X019631Y011415D01*
X019631Y011535D01*
X019691Y011595D01*
X019631Y011723D02*
X019991Y011723D01*
X019871Y011843D01*
X019991Y011963D01*
X019631Y011963D01*
X019631Y012091D02*
X019631Y012271D01*
X019691Y012331D01*
X019931Y012331D01*
X019991Y012271D01*
X019991Y012091D01*
X019631Y012091D01*
X018074Y012977D02*
X017713Y012977D01*
X017713Y013217D01*
X017713Y013345D02*
X017713Y013585D01*
X017713Y013465D02*
X018074Y013465D01*
X018074Y013713D02*
X017713Y013713D01*
X017713Y013893D01*
X017773Y013953D01*
X018014Y013953D01*
X018074Y013893D01*
X018074Y013713D01*
X018074Y014081D02*
X018074Y014202D01*
X018074Y014141D02*
X017713Y014141D01*
X017713Y014081D02*
X017713Y014202D01*
X017894Y013097D02*
X017894Y012977D01*
X018014Y010327D02*
X017773Y010327D01*
X017713Y010267D01*
X017713Y010087D01*
X018074Y010087D01*
X018074Y010267D01*
X018014Y010327D01*
X018074Y009959D02*
X017713Y009959D01*
X017713Y009719D02*
X018074Y009959D01*
X018074Y009719D02*
X017713Y009719D01*
X017773Y009591D02*
X017713Y009531D01*
X017713Y009411D01*
X017773Y009351D01*
X018014Y009351D01*
X018074Y009411D01*
X018074Y009531D01*
X018014Y009591D01*
X017894Y009591D01*
X017894Y009471D01*
X010393Y008215D02*
X010153Y008215D01*
X010153Y008575D01*
X010025Y008455D02*
X010025Y008215D01*
X010025Y008395D02*
X009785Y008395D01*
X009785Y008455D02*
X009785Y008215D01*
X009660Y008215D02*
X009539Y008215D01*
X009599Y008215D02*
X009599Y008575D01*
X009539Y008575D02*
X009660Y008575D01*
X009785Y008455D02*
X009905Y008575D01*
X010025Y008455D01*
X009411Y008395D02*
X009351Y008335D01*
X009171Y008335D01*
X009171Y008215D02*
X009171Y008575D01*
X009351Y008575D01*
X009411Y008515D01*
X009411Y008395D01*
X009291Y008335D02*
X009411Y008215D01*
X009043Y008215D02*
X008803Y008215D01*
X008803Y008575D01*
X009043Y008575D01*
X008923Y008395D02*
X008803Y008395D01*
X008675Y008335D02*
X008675Y008275D01*
X008615Y008215D01*
X008495Y008215D01*
X008435Y008275D01*
X008495Y008395D02*
X008435Y008455D01*
X008435Y008515D01*
X008495Y008575D01*
X008615Y008575D01*
X008675Y008515D01*
X008615Y008395D02*
X008675Y008335D01*
X008615Y008395D02*
X008495Y008395D01*
X008306Y008395D02*
X008066Y008395D01*
X007938Y008455D02*
X007878Y008395D01*
X007698Y008395D01*
X007570Y008335D02*
X007570Y008275D01*
X007510Y008215D01*
X007390Y008215D01*
X007330Y008275D01*
X007201Y008275D02*
X007201Y008575D01*
X007330Y008515D02*
X007330Y008455D01*
X007390Y008395D01*
X007510Y008395D01*
X007570Y008335D01*
X007698Y008215D02*
X007878Y008215D01*
X007938Y008275D01*
X007938Y008335D01*
X007878Y008395D01*
X007938Y008455D02*
X007938Y008515D01*
X007878Y008575D01*
X007698Y008575D01*
X007698Y008215D01*
X007570Y008515D02*
X007510Y008575D01*
X007390Y008575D01*
X007330Y008515D01*
X007201Y008275D02*
X007141Y008215D01*
X007021Y008215D01*
X006961Y008275D01*
X006961Y008575D01*
X006070Y006528D02*
X006070Y006221D01*
X005763Y006528D01*
X005686Y006528D01*
X005609Y006451D01*
X005609Y006297D01*
X005686Y006221D01*
X006208Y004236D02*
X006208Y003929D01*
X006208Y004083D02*
X005747Y004083D01*
X005901Y003929D01*
X006277Y014144D02*
X006217Y014204D01*
X006217Y014504D01*
X006457Y014504D02*
X006457Y014204D01*
X006397Y014144D01*
X006277Y014144D01*
X006586Y014204D02*
X006646Y014144D01*
X006766Y014144D01*
X006826Y014204D01*
X006826Y014264D01*
X006766Y014324D01*
X006646Y014324D01*
X006586Y014384D01*
X006586Y014444D01*
X006646Y014504D01*
X006766Y014504D01*
X006826Y014444D01*
X006954Y014504D02*
X007134Y014504D01*
X007194Y014444D01*
X007194Y014384D01*
X007134Y014324D01*
X006954Y014324D01*
X007134Y014324D02*
X007194Y014264D01*
X007194Y014204D01*
X007134Y014144D01*
X006954Y014144D01*
X006954Y014504D01*
X007322Y014324D02*
X007562Y014324D01*
X007690Y014384D02*
X007750Y014324D01*
X007871Y014324D01*
X007931Y014264D01*
X007931Y014204D01*
X007871Y014144D01*
X007750Y014144D01*
X007690Y014204D01*
X007690Y014384D02*
X007690Y014444D01*
X007750Y014504D01*
X007871Y014504D01*
X007931Y014444D01*
X008059Y014504D02*
X008059Y014144D01*
X008299Y014144D01*
X008427Y014144D02*
X008427Y014504D01*
X008607Y014504D01*
X008667Y014444D01*
X008667Y014324D01*
X008607Y014264D01*
X008427Y014264D01*
X008547Y014264D02*
X008667Y014144D01*
X008795Y014144D02*
X008915Y014144D01*
X008855Y014144D02*
X008855Y014504D01*
X008795Y014504D02*
X008915Y014504D01*
X009041Y014384D02*
X009161Y014504D01*
X009281Y014384D01*
X009281Y014144D01*
X009409Y014144D02*
X009409Y014504D01*
X009281Y014324D02*
X009041Y014324D01*
X009041Y014384D02*
X009041Y014144D01*
X009409Y014144D02*
X009649Y014144D01*
X008299Y014504D02*
X008059Y014504D01*
X008059Y014324D02*
X008179Y014324D01*
X013629Y016940D02*
X013689Y016880D01*
X013749Y016880D01*
X013809Y016940D01*
X013809Y017240D01*
X013749Y017240D02*
X013870Y017240D01*
X013998Y017240D02*
X014178Y017240D01*
X014238Y017180D01*
X014238Y017060D01*
X014178Y017000D01*
X013998Y017000D01*
X013998Y016880D02*
X013998Y017240D01*
X014366Y017180D02*
X014426Y017240D01*
X014546Y017240D01*
X014606Y017180D01*
X014606Y017120D01*
X014546Y017060D01*
X014606Y017000D01*
X014606Y016940D01*
X014546Y016880D01*
X014426Y016880D01*
X014366Y016940D01*
X014486Y017060D02*
X014546Y017060D01*
X014860Y017752D02*
X015100Y017752D01*
X015160Y017812D01*
X015160Y017932D01*
X015100Y017992D01*
X014980Y017992D01*
X014980Y017872D01*
X014860Y017752D02*
X014800Y017812D01*
X014800Y017932D01*
X014860Y017992D01*
X014800Y018120D02*
X015160Y018361D01*
X014800Y018361D01*
X014800Y018489D02*
X014800Y018669D01*
X014860Y018729D01*
X015100Y018729D01*
X015160Y018669D01*
X015160Y018489D01*
X014800Y018489D01*
X014800Y018120D02*
X015160Y018120D01*
X013467Y019445D02*
X013226Y019445D01*
X013347Y019445D02*
X013347Y019805D01*
X013226Y019685D01*
X013098Y019805D02*
X013098Y019445D01*
X012858Y019805D01*
X012858Y019445D01*
X012730Y019445D02*
X012730Y019685D01*
X012610Y019805D01*
X012490Y019685D01*
X012490Y019445D01*
X012362Y019505D02*
X012302Y019445D01*
X012182Y019445D01*
X012122Y019505D01*
X012122Y019745D01*
X012182Y019805D01*
X012302Y019805D01*
X012362Y019745D01*
X012490Y019625D02*
X012730Y019625D01*
X010876Y022116D02*
X010936Y022176D01*
X010936Y022236D01*
X010876Y022296D01*
X010576Y022296D01*
X010576Y022236D02*
X010576Y022356D01*
X010576Y022484D02*
X010576Y022664D01*
X010636Y022724D01*
X010756Y022724D01*
X010816Y022664D01*
X010816Y022484D01*
X010936Y022484D02*
X010576Y022484D01*
X010636Y022852D02*
X010576Y022912D01*
X010576Y023033D01*
X010636Y023093D01*
X010696Y023093D01*
X010936Y022852D01*
X010936Y023093D01*
X010124Y023630D02*
X010064Y023690D01*
X010064Y023930D01*
X010004Y023870D02*
X010124Y023870D01*
X009876Y023870D02*
X009696Y023870D01*
X009636Y023810D01*
X009636Y023690D01*
X009696Y023630D01*
X009876Y023630D01*
X009508Y023750D02*
X009268Y023750D01*
X009268Y023690D02*
X009268Y023810D01*
X009328Y023870D01*
X009448Y023870D01*
X009508Y023810D01*
X009508Y023750D01*
X009448Y023630D02*
X009328Y023630D01*
X009268Y023690D01*
X009142Y023630D02*
X009022Y023630D01*
X009082Y023630D02*
X009082Y023990D01*
X009022Y023990D01*
X008894Y023810D02*
X008894Y023750D01*
X008654Y023750D01*
X008654Y023690D02*
X008654Y023810D01*
X008714Y023870D01*
X008834Y023870D01*
X008894Y023810D01*
X008834Y023630D02*
X008714Y023630D01*
X008654Y023690D01*
X008526Y023690D02*
X008466Y023750D01*
X008346Y023750D01*
X008286Y023810D01*
X008346Y023870D01*
X008526Y023870D01*
X008526Y023690D02*
X008466Y023630D01*
X008286Y023630D01*
X007789Y023870D02*
X007669Y023630D01*
X007549Y023870D01*
X007421Y023810D02*
X007361Y023870D01*
X007301Y023870D01*
X007181Y023810D01*
X007181Y023990D01*
X007421Y023990D01*
X007421Y023810D02*
X007421Y023690D01*
X007361Y023630D01*
X007241Y023630D01*
X007181Y023690D01*
X006531Y023167D02*
X006531Y022927D01*
X006531Y023047D02*
X006171Y023047D01*
X006291Y022927D01*
X006351Y022799D02*
X006411Y022739D01*
X006411Y022559D01*
X006531Y022559D02*
X006171Y022559D01*
X006171Y022739D01*
X006231Y022799D01*
X006351Y022799D01*
X006171Y022431D02*
X006171Y022311D01*
X006171Y022371D02*
X006471Y022371D01*
X006531Y022311D01*
X006531Y022251D01*
X006471Y022191D01*
X006133Y027937D02*
X006133Y028244D01*
X006133Y028091D02*
X005672Y028091D01*
X005826Y027937D01*
X005686Y030043D02*
X005609Y030120D01*
X005609Y030274D01*
X005686Y030350D01*
X005763Y030350D01*
X006070Y030043D01*
X006070Y030350D01*
X016403Y024733D02*
X016463Y024673D01*
X016523Y024673D01*
X016583Y024733D01*
X016583Y025033D01*
X016523Y025033D02*
X016643Y025033D01*
X016771Y025033D02*
X016951Y025033D01*
X017011Y024973D01*
X017011Y024853D01*
X016951Y024793D01*
X016771Y024793D01*
X016771Y024673D02*
X016771Y025033D01*
X017139Y024973D02*
X017139Y024913D01*
X017199Y024853D01*
X017319Y024853D01*
X017379Y024793D01*
X017379Y024733D01*
X017319Y024673D01*
X017199Y024673D01*
X017139Y024733D01*
X017139Y024793D01*
X017199Y024853D01*
X017319Y024853D02*
X017379Y024913D01*
X017379Y024973D01*
X017319Y025033D01*
X017199Y025033D01*
X017139Y024973D01*
X026054Y030321D02*
X026284Y030091D01*
X026284Y030398D01*
X026131Y030551D02*
X026054Y030628D01*
X026054Y030781D01*
X026131Y030858D01*
X026438Y030551D01*
X026515Y030628D01*
X026515Y030781D01*
X026438Y030858D01*
X026131Y030858D01*
X026131Y030551D02*
X026438Y030551D01*
X026515Y030321D02*
X026054Y030321D01*
X026332Y028452D02*
X026255Y028376D01*
X026255Y028222D01*
X026332Y028146D01*
X026409Y028146D01*
X026485Y028222D01*
X026485Y028452D01*
X026332Y028452D02*
X026639Y028452D01*
X026715Y028376D01*
X026715Y028222D01*
X026639Y028146D01*
X026639Y027992D02*
X026715Y027915D01*
X026715Y027762D01*
X026639Y027685D01*
X026485Y027839D02*
X026485Y027915D01*
X026562Y027992D01*
X026639Y027992D01*
X026485Y027915D02*
X026409Y027992D01*
X026332Y027992D01*
X026255Y027915D01*
X026255Y027762D01*
X026332Y027685D01*
X035527Y020245D02*
X035527Y020005D01*
X035587Y019945D01*
X035707Y019945D01*
X035767Y020005D01*
X035767Y020125D01*
X035647Y020125D01*
X035527Y020245D02*
X035587Y020305D01*
X035707Y020305D01*
X035767Y020245D01*
X034751Y019065D02*
X034630Y019065D01*
X034570Y019005D01*
X034751Y019065D02*
X034811Y019005D01*
X034811Y018945D01*
X034570Y018705D01*
X034811Y018705D01*
X034968Y018097D02*
X034848Y018037D01*
X034728Y017916D01*
X034908Y017916D01*
X034968Y017856D01*
X034968Y017796D01*
X034908Y017736D01*
X034788Y017736D01*
X034728Y017796D01*
X034728Y017916D01*
X034857Y017089D02*
X034977Y017089D01*
X035037Y017029D01*
X034797Y016789D01*
X034857Y016729D01*
X034977Y016729D01*
X035037Y016789D01*
X035037Y017029D01*
X034857Y017089D02*
X034797Y017029D01*
X034797Y016789D01*
X034669Y016729D02*
X034429Y016729D01*
X034549Y016729D02*
X034549Y017089D01*
X034429Y016969D01*
X034549Y016120D02*
X034549Y015760D01*
X034429Y015760D02*
X034669Y015760D01*
X034797Y015940D02*
X035037Y015940D01*
X034977Y015760D02*
X034977Y016120D01*
X034797Y015940D01*
X034549Y016120D02*
X034429Y016000D01*
X034537Y015081D02*
X034537Y014721D01*
X034417Y014721D02*
X034657Y014721D01*
X034417Y014961D02*
X034537Y015081D01*
X034429Y014140D02*
X034429Y013960D01*
X034549Y014020D01*
X034609Y014020D01*
X034669Y013960D01*
X034669Y013840D01*
X034609Y013780D01*
X034489Y013780D01*
X034429Y013840D01*
X034429Y014140D02*
X034669Y014140D01*
X034522Y013030D02*
X034402Y013030D01*
X034342Y012970D01*
X034342Y012910D01*
X034402Y012850D01*
X034582Y012850D01*
X034582Y012970D02*
X034522Y013030D01*
X034582Y012970D02*
X034582Y012729D01*
X034522Y012669D01*
X034402Y012669D01*
X034342Y012729D01*
X034494Y011849D02*
X034494Y011488D01*
X034374Y011488D02*
X034614Y011488D01*
X034742Y011548D02*
X034802Y011488D01*
X034922Y011488D01*
X034982Y011548D01*
X034982Y011608D01*
X034922Y011668D01*
X034862Y011668D01*
X034922Y011668D02*
X034982Y011729D01*
X034982Y011789D01*
X034922Y011849D01*
X034802Y011849D01*
X034742Y011789D01*
X034494Y011849D02*
X034374Y011729D01*
X033242Y013394D02*
X033002Y013394D01*
X033122Y013394D02*
X033122Y013754D01*
X033002Y013634D01*
X032874Y013394D02*
X032633Y013394D01*
X032753Y013394D02*
X032753Y013754D01*
X032633Y013634D01*
X032332Y012601D02*
X032092Y012601D01*
X032092Y012420D01*
X032212Y012481D01*
X032272Y012481D01*
X032332Y012420D01*
X032332Y012300D01*
X032272Y012240D01*
X032152Y012240D01*
X032092Y012300D01*
X031964Y012240D02*
X031724Y012240D01*
X031844Y012240D02*
X031844Y012601D01*
X031724Y012481D01*
X031212Y014776D02*
X031212Y014836D01*
X031452Y015076D01*
X031452Y015136D01*
X031212Y015136D01*
X032779Y015505D02*
X032839Y015445D01*
X032959Y015445D01*
X033019Y015505D01*
X033019Y015565D01*
X032959Y015625D01*
X032899Y015625D01*
X032959Y015625D02*
X033019Y015685D01*
X033019Y015745D01*
X032959Y015805D01*
X032839Y015805D01*
X032779Y015745D01*
X031402Y017099D02*
X031462Y017159D01*
X031462Y017219D01*
X031402Y017279D01*
X031222Y017279D01*
X031222Y017159D01*
X031282Y017099D01*
X031402Y017099D01*
X031222Y017279D02*
X031342Y017399D01*
X031462Y017459D01*
X030974Y017459D02*
X030974Y017099D01*
X030854Y017099D02*
X031094Y017099D01*
X030854Y017339D02*
X030974Y017459D01*
X032976Y017447D02*
X033036Y017507D01*
X033156Y017507D01*
X033216Y017447D01*
X033216Y017387D01*
X033156Y017327D01*
X033036Y017327D01*
X032976Y017387D01*
X032976Y017447D01*
X033036Y017507D02*
X032976Y017567D01*
X032976Y017627D01*
X033036Y017687D01*
X033156Y017687D01*
X033216Y017627D01*
X033216Y017567D01*
X033156Y017507D01*
X033912Y019189D02*
X033912Y019549D01*
X033732Y019369D01*
X033972Y019369D01*
X036910Y025059D02*
X036850Y025119D01*
X036910Y025059D02*
X037030Y025059D01*
X037090Y025119D01*
X037090Y025179D01*
X037030Y025239D01*
X036910Y025239D01*
X036850Y025299D01*
X036850Y025359D01*
X036910Y025419D01*
X037030Y025419D01*
X037090Y025359D01*
X037218Y025419D02*
X037398Y025419D01*
X037458Y025359D01*
X037458Y025239D01*
X037398Y025179D01*
X037218Y025179D01*
X037218Y025059D02*
X037218Y025419D01*
X037338Y025179D02*
X037458Y025059D01*
X037587Y025059D02*
X037587Y025419D01*
X037767Y025419D01*
X037827Y025359D01*
X037827Y025239D01*
X037767Y025179D01*
X037587Y025179D01*
X041495Y021672D02*
X041795Y021672D01*
X041855Y021612D01*
X041855Y021552D01*
X041735Y021492D02*
X041735Y021672D01*
X041735Y021492D02*
X041675Y021432D01*
X041495Y021432D01*
X041495Y021307D02*
X041495Y021186D01*
X041435Y021246D02*
X041675Y021246D01*
X041735Y021307D01*
X041735Y021061D02*
X041735Y020941D01*
X041735Y021001D02*
X041495Y021001D01*
X041495Y020941D01*
X041495Y020814D02*
X041495Y020754D01*
X041615Y020634D01*
X041735Y020634D02*
X041495Y020634D01*
X041555Y020506D02*
X041735Y020506D01*
X041735Y020326D01*
X041675Y020266D01*
X041615Y020326D01*
X041615Y020506D01*
X041555Y020506D02*
X041495Y020446D01*
X041495Y020326D01*
X041375Y020080D02*
X041735Y020080D01*
X041735Y020020D02*
X041735Y020140D01*
X041675Y019892D02*
X041555Y019892D01*
X041495Y019832D01*
X041495Y019712D01*
X041555Y019652D01*
X041675Y019652D01*
X041735Y019712D01*
X041735Y019832D01*
X041675Y019892D01*
X041375Y020020D02*
X041375Y020080D01*
X041435Y019524D02*
X041375Y019464D01*
X041375Y019284D01*
X041735Y019284D01*
X041615Y019284D02*
X041615Y019464D01*
X041555Y019524D01*
X041435Y019524D01*
X041375Y021001D02*
X041315Y021001D01*
X041339Y017459D02*
X041459Y017459D01*
X041519Y017399D01*
X041519Y017339D01*
X041459Y017279D01*
X041339Y017279D01*
X041279Y017339D01*
X041279Y017399D01*
X041339Y017459D01*
X041339Y017279D02*
X041279Y017219D01*
X041279Y017159D01*
X041339Y017099D01*
X041459Y017099D01*
X041519Y017159D01*
X041519Y017219D01*
X041459Y017279D01*
X041703Y016506D02*
X041582Y016446D01*
X041462Y016326D01*
X041642Y016326D01*
X041703Y016266D01*
X041703Y016206D01*
X041642Y016146D01*
X041522Y016146D01*
X041462Y016206D01*
X041462Y016326D01*
X041334Y016146D02*
X041094Y016146D01*
X041214Y016146D02*
X041214Y016506D01*
X041094Y016386D01*
X041386Y015518D02*
X041326Y015458D01*
X041386Y015518D02*
X041506Y015518D01*
X041566Y015458D01*
X041566Y015398D01*
X041506Y015338D01*
X041566Y015278D01*
X041566Y015218D01*
X041506Y015158D01*
X041386Y015158D01*
X041326Y015218D01*
X041446Y015338D02*
X041506Y015338D01*
X041594Y014510D02*
X041354Y014510D01*
X041594Y014510D02*
X041594Y014450D01*
X041354Y014210D01*
X041354Y014150D01*
X041523Y013542D02*
X041523Y013181D01*
X041403Y013181D02*
X041643Y013181D01*
X041403Y013421D02*
X041523Y013542D01*
X041155Y013542D02*
X041155Y013181D01*
X041035Y013181D02*
X041275Y013181D01*
X041035Y013421D02*
X041155Y013542D01*
X041187Y012514D02*
X041187Y012154D01*
X041307Y012154D02*
X041066Y012154D01*
X041066Y012394D02*
X041187Y012514D01*
X041435Y012514D02*
X041435Y012334D01*
X041555Y012394D01*
X041615Y012394D01*
X041675Y012334D01*
X041675Y012214D01*
X041615Y012154D01*
X041495Y012154D01*
X041435Y012214D01*
X041435Y012514D02*
X041675Y012514D01*
D14*
X037071Y006785D02*
X036771Y006785D01*
X036921Y006785D02*
X036921Y006335D01*
X036611Y006335D02*
X036311Y006335D01*
X036311Y006785D01*
X036611Y006785D01*
X036461Y006560D02*
X036311Y006560D01*
X036151Y006485D02*
X036151Y006410D01*
X036076Y006335D01*
X035925Y006335D01*
X035850Y006410D01*
X035925Y006560D02*
X036076Y006560D01*
X036151Y006485D01*
X036151Y006710D02*
X036076Y006785D01*
X035925Y006785D01*
X035850Y006710D01*
X035850Y006635D01*
X035925Y006560D01*
X035690Y006785D02*
X035390Y006785D01*
X035390Y006335D01*
X035690Y006335D01*
X035540Y006560D02*
X035390Y006560D01*
X035230Y006560D02*
X035155Y006485D01*
X034930Y006485D01*
X035080Y006485D02*
X035230Y006335D01*
X035230Y006560D02*
X035230Y006710D01*
X035155Y006785D01*
X034930Y006785D01*
X034930Y006335D01*
X039996Y005663D02*
X040071Y005588D01*
X040146Y005588D01*
X040221Y005663D01*
X040221Y006039D01*
X040146Y006039D02*
X040296Y006039D01*
X040456Y006039D02*
X040681Y006039D01*
X040756Y005964D01*
X040756Y005813D01*
X040681Y005738D01*
X040456Y005738D01*
X040456Y005588D02*
X040456Y006039D01*
X040917Y005964D02*
X040917Y005889D01*
X040992Y005813D01*
X041217Y005813D01*
X041217Y005663D02*
X041217Y005964D01*
X041142Y006039D01*
X040992Y006039D01*
X040917Y005964D01*
X040917Y005663D02*
X040992Y005588D01*
X041142Y005588D01*
X041217Y005663D01*
X033950Y021501D02*
X033500Y021501D01*
X033500Y021726D01*
X033575Y021801D01*
X033725Y021801D01*
X033800Y021726D01*
X033800Y021501D01*
X033800Y021651D02*
X033950Y021801D01*
X033950Y022112D02*
X033725Y022112D01*
X033575Y022262D01*
X033500Y022262D01*
X033575Y022422D02*
X033500Y022497D01*
X033500Y022647D01*
X033575Y022722D01*
X033650Y022722D01*
X033950Y022422D01*
X033950Y022722D01*
X033725Y022112D02*
X033575Y021962D01*
X033500Y021962D01*
X033535Y024985D02*
X033535Y025211D01*
X033610Y025286D01*
X033760Y025286D01*
X033836Y025211D01*
X033836Y024985D01*
X033986Y024985D02*
X033535Y024985D01*
X033836Y025136D02*
X033986Y025286D01*
X033986Y025596D02*
X033760Y025596D01*
X033610Y025746D01*
X033535Y025746D01*
X033685Y025906D02*
X033535Y026056D01*
X033986Y026056D01*
X033986Y025906D02*
X033986Y026206D01*
X033760Y025596D02*
X033610Y025446D01*
X033535Y025446D01*
X039431Y024045D02*
X039657Y023820D01*
X039657Y024121D01*
X039882Y024045D02*
X039431Y024045D01*
X039506Y023660D02*
X039657Y023660D01*
X039732Y023585D01*
X039732Y023360D01*
X039882Y023360D02*
X039431Y023360D01*
X039431Y023585D01*
X039506Y023660D01*
X039431Y023200D02*
X039431Y023050D01*
X039431Y023125D02*
X039807Y023125D01*
X039882Y023050D01*
X039882Y022975D01*
X039807Y022900D01*
X012046Y030460D02*
X011895Y030610D01*
X011970Y030610D02*
X011745Y030610D01*
X011745Y030460D02*
X011745Y030910D01*
X011970Y030910D01*
X012046Y030835D01*
X012046Y030685D01*
X011970Y030610D01*
X011585Y030460D02*
X011285Y030460D01*
X011285Y030910D01*
X011585Y030910D01*
X011435Y030685D02*
X011285Y030685D01*
X011125Y030535D02*
X011125Y030835D01*
X011050Y030910D01*
X010825Y030910D01*
X010825Y030460D01*
X011050Y030460D01*
X011125Y030535D01*
X010664Y030460D02*
X010664Y030760D01*
X010514Y030910D01*
X010364Y030760D01*
X010364Y030460D01*
X010204Y030460D02*
X009904Y030460D01*
X009904Y030910D01*
X010204Y030910D01*
X010054Y030685D02*
X009904Y030685D01*
X009744Y030685D02*
X009444Y030685D01*
X009283Y030685D02*
X008983Y030685D01*
X008823Y030535D02*
X008823Y030835D01*
X008748Y030910D01*
X008598Y030910D01*
X008523Y030835D01*
X008523Y030535D01*
X008598Y030460D01*
X008748Y030460D01*
X008823Y030535D01*
X008363Y030460D02*
X008062Y030460D01*
X008062Y030910D01*
X008363Y030910D01*
X008213Y030685D02*
X008062Y030685D01*
X007902Y030460D02*
X007602Y030460D01*
X007602Y030910D01*
X007442Y030835D02*
X007367Y030910D01*
X007217Y030910D01*
X007142Y030835D01*
X007142Y030535D01*
X007217Y030460D01*
X007367Y030460D01*
X007442Y030535D01*
X006982Y030535D02*
X006982Y030910D01*
X006681Y030910D02*
X006681Y030535D01*
X006756Y030460D01*
X006907Y030460D01*
X006982Y030535D01*
X006521Y030460D02*
X006521Y030910D01*
X006221Y030910D02*
X006221Y030460D01*
X006521Y030460D02*
X006221Y030910D01*
X009444Y030910D02*
X009444Y030460D01*
X009744Y030460D02*
X009744Y030910D01*
X010364Y030685D02*
X010664Y030685D01*
X010785Y006973D02*
X011010Y006973D01*
X011085Y006898D01*
X011085Y006598D01*
X011010Y006523D01*
X010785Y006523D01*
X010785Y006973D01*
X010625Y006823D02*
X010625Y006523D01*
X010625Y006748D02*
X010325Y006748D01*
X010325Y006823D02*
X010475Y006973D01*
X010625Y006823D01*
X010325Y006823D02*
X010325Y006523D01*
X010165Y006523D02*
X009865Y006523D01*
X009865Y006973D01*
X010165Y006973D01*
X010015Y006748D02*
X009865Y006748D01*
X009704Y006748D02*
X009404Y006748D01*
X009244Y006748D02*
X008944Y006748D01*
X008784Y006598D02*
X008784Y006898D01*
X008709Y006973D01*
X008559Y006973D01*
X008483Y006898D01*
X008483Y006598D01*
X008559Y006523D01*
X008709Y006523D01*
X008784Y006598D01*
X008323Y006523D02*
X008023Y006523D01*
X008023Y006973D01*
X008323Y006973D01*
X008173Y006748D02*
X008023Y006748D01*
X007863Y006523D02*
X007563Y006523D01*
X007563Y006973D01*
X007403Y006898D02*
X007328Y006973D01*
X007177Y006973D01*
X007102Y006898D01*
X007102Y006598D01*
X007177Y006523D01*
X007328Y006523D01*
X007403Y006598D01*
X006942Y006598D02*
X006942Y006973D01*
X006642Y006973D02*
X006642Y006598D01*
X006717Y006523D01*
X006867Y006523D01*
X006942Y006598D01*
X006482Y006523D02*
X006482Y006973D01*
X006182Y006973D02*
X006482Y006523D01*
X006182Y006523D02*
X006182Y006973D01*
X009404Y006973D02*
X009404Y006523D01*
X009704Y006523D02*
X009704Y006973D01*
X011246Y006973D02*
X011246Y006523D01*
X011546Y006523D01*
X011706Y006523D02*
X011706Y006973D01*
X011931Y006973D01*
X012006Y006898D01*
X012006Y006748D01*
X011931Y006673D01*
X011706Y006673D01*
X011856Y006673D02*
X012006Y006523D01*
X011396Y006748D02*
X011246Y006748D01*
X011246Y006973D02*
X011546Y006973D01*
M02*
