G75*
G70*
%OFA0B0*%
%FSLAX24Y24*%
%IPPOS*%
%LPD*%
%AMOC8*
5,1,8,0,0,1.08239X$1,22.5*
%
%ADD10C,0.0080*%
%ADD11R,0.0492X0.0618*%
%ADD12C,0.2049*%
%ADD13C,0.1340*%
%ADD14OC8,0.0710*%
%ADD15R,0.0513X0.0474*%
%ADD16R,0.0552X0.0182*%
%ADD17R,0.0182X0.0552*%
%ADD18R,0.0474X0.0513*%
%ADD19R,0.0395X0.0395*%
%ADD20R,0.0674X0.0674*%
%ADD21OC8,0.0674*%
%ADD22O,0.1267X0.0674*%
%ADD23O,0.0674X0.1267*%
%ADD24R,0.0552X0.0297*%
%ADD25R,0.1300X0.0808*%
%ADD26R,0.0690X0.0474*%
%ADD27O,0.0680X0.1280*%
%ADD28OC8,0.0556*%
%ADD29C,0.0556*%
%ADD30R,0.0556X0.0556*%
%ADD31C,0.0730*%
%ADD32OC8,0.0680*%
%ADD33C,0.0595*%
%ADD34R,0.0474X0.0631*%
%ADD35R,0.0434X0.0552*%
%ADD36C,0.0476*%
%ADD37C,0.0671*%
D10*
X020550Y016240D02*
X020511Y017819D01*
X020550Y017968D01*
X022397Y017960D01*
X023196Y017023D01*
X023165Y016232D01*
X020550Y016240D01*
X020549Y016298D02*
X023167Y016298D01*
X023170Y016377D02*
X020547Y016377D01*
X020545Y016456D02*
X023173Y016456D01*
X023177Y016534D02*
X020543Y016534D01*
X020541Y016613D02*
X023180Y016613D01*
X023183Y016691D02*
X020539Y016691D01*
X020537Y016770D02*
X023186Y016770D01*
X023189Y016848D02*
X020535Y016848D01*
X020533Y016927D02*
X023192Y016927D01*
X023195Y017005D02*
X020531Y017005D01*
X020529Y017084D02*
X023144Y017084D01*
X023078Y017162D02*
X020527Y017162D01*
X020525Y017241D02*
X023011Y017241D01*
X022944Y017320D02*
X020524Y017320D01*
X020522Y017398D02*
X022877Y017398D01*
X022810Y017477D02*
X020520Y017477D01*
X020518Y017555D02*
X022743Y017555D01*
X022676Y017634D02*
X020516Y017634D01*
X020514Y017712D02*
X022609Y017712D01*
X022542Y017791D02*
X020512Y017791D01*
X020524Y017869D02*
X022475Y017869D01*
X022408Y017948D02*
X020545Y017948D01*
X023991Y018138D02*
X024633Y016401D01*
X026483Y016405D01*
X026472Y018118D01*
X023991Y018138D01*
X024003Y018105D02*
X026472Y018105D01*
X026472Y018026D02*
X024032Y018026D01*
X024061Y017948D02*
X026473Y017948D01*
X026473Y017869D02*
X024090Y017869D01*
X024120Y017791D02*
X026474Y017791D01*
X026474Y017712D02*
X024149Y017712D01*
X024178Y017634D02*
X026475Y017634D01*
X026476Y017555D02*
X024207Y017555D01*
X024236Y017477D02*
X026476Y017477D01*
X026477Y017398D02*
X024265Y017398D01*
X024294Y017320D02*
X026477Y017320D01*
X026478Y017241D02*
X024323Y017241D01*
X024352Y017162D02*
X026478Y017162D01*
X026479Y017084D02*
X024381Y017084D01*
X024410Y017005D02*
X026479Y017005D01*
X026480Y016927D02*
X024439Y016927D01*
X024468Y016848D02*
X026480Y016848D01*
X026481Y016770D02*
X024497Y016770D01*
X024526Y016691D02*
X026481Y016691D01*
X026482Y016613D02*
X024555Y016613D01*
X024584Y016534D02*
X026483Y016534D01*
X026483Y016456D02*
X024613Y016456D01*
D11*
X014308Y018754D03*
D12*
X005657Y020185D03*
X005669Y013716D03*
D13*
X004751Y003106D03*
X004759Y030661D03*
X041767Y030653D03*
X041759Y003102D03*
D14*
X038755Y011815D03*
X038755Y012815D03*
X038755Y013815D03*
X038755Y014815D03*
X038755Y015815D03*
X038755Y016815D03*
X038755Y017815D03*
X038755Y018815D03*
X038755Y019815D03*
X038755Y020815D03*
X037755Y020815D03*
X037755Y019815D03*
X037755Y018815D03*
X037755Y017815D03*
X037755Y016815D03*
X037755Y015815D03*
X037755Y014815D03*
X037755Y013815D03*
X037755Y012815D03*
X037755Y011815D03*
D15*
X042176Y015854D03*
X042176Y016523D03*
X024401Y011945D03*
X024401Y011275D03*
X023420Y011275D03*
X023420Y011945D03*
X018298Y016362D03*
X018310Y017016D03*
X017641Y017016D03*
X017629Y016362D03*
D16*
X021574Y016366D03*
X021574Y016169D03*
X021574Y015972D03*
X021574Y015775D03*
X021574Y015579D03*
X021574Y015382D03*
X021574Y015185D03*
X021574Y014988D03*
X021574Y014791D03*
X021574Y014594D03*
X021574Y014397D03*
X021574Y016563D03*
X021574Y016760D03*
X021574Y016957D03*
X021574Y017153D03*
X021574Y017350D03*
X026062Y017350D03*
X026062Y017153D03*
X026062Y016957D03*
X026062Y016760D03*
X026062Y016563D03*
X026062Y016366D03*
X026062Y016169D03*
X026062Y015972D03*
X026062Y015775D03*
X026062Y015579D03*
X026062Y015382D03*
X026062Y015185D03*
X026062Y014988D03*
X026062Y014791D03*
X026062Y014594D03*
X026062Y014397D03*
D17*
X025294Y013630D03*
X025098Y013630D03*
X024901Y013630D03*
X024704Y013630D03*
X024507Y013630D03*
X024310Y013630D03*
X024113Y013630D03*
X023917Y013630D03*
X023720Y013630D03*
X023523Y013630D03*
X023326Y013630D03*
X023129Y013630D03*
X022932Y013630D03*
X022735Y013630D03*
X022539Y013630D03*
X022342Y013630D03*
X022342Y018118D03*
X022539Y018118D03*
X022735Y018118D03*
X022932Y018118D03*
X023129Y018118D03*
X023326Y018118D03*
X023523Y018118D03*
X023720Y018118D03*
X023917Y018118D03*
X024113Y018118D03*
X024310Y018118D03*
X024507Y018118D03*
X024704Y018118D03*
X024901Y018118D03*
X025098Y018118D03*
X025294Y018118D03*
D18*
X029936Y020067D03*
X030606Y020067D03*
X025330Y023319D03*
X024661Y023319D03*
X024645Y024295D03*
X025314Y024295D03*
X019779Y008382D03*
X019109Y008382D03*
X019094Y007547D03*
X019763Y007547D03*
X037645Y003555D03*
X038314Y003555D03*
D19*
X041342Y018205D03*
X041342Y018795D03*
X042046Y018799D03*
X042046Y018209D03*
X018621Y008252D03*
X018031Y008252D03*
X018062Y007653D03*
X018653Y007653D03*
D20*
X018731Y009925D03*
D21*
X018731Y010925D03*
X018731Y011925D03*
X018731Y012925D03*
X018731Y013925D03*
X018731Y014925D03*
D22*
X020873Y012071D03*
X020873Y011071D03*
X020873Y010071D03*
X009413Y020748D03*
X009413Y021748D03*
X009413Y022748D03*
X007657Y022748D03*
X007657Y021748D03*
X007657Y020748D03*
D23*
X011184Y017980D03*
X012184Y017980D03*
X013184Y017980D03*
X014184Y017980D03*
X016913Y023933D03*
X017913Y023933D03*
X018913Y023933D03*
X019913Y023933D03*
X023102Y010205D03*
X024102Y010205D03*
X025102Y010205D03*
X026102Y010205D03*
X038822Y006783D03*
X039822Y006783D03*
X040822Y006783D03*
D24*
X019267Y017386D03*
X019267Y017976D03*
X019306Y018567D03*
D25*
X018283Y017976D03*
D26*
X034932Y008838D03*
X034932Y007579D03*
X036980Y007579D03*
X036980Y008799D03*
D27*
X014141Y009453D03*
X013141Y009453D03*
X012141Y009453D03*
X011141Y009453D03*
X010141Y009453D03*
X009141Y009453D03*
X008141Y009453D03*
X007141Y009453D03*
X006141Y009453D03*
X006141Y015453D03*
X007141Y015453D03*
X008141Y015453D03*
X009141Y015453D03*
X010141Y015453D03*
X011141Y015453D03*
X012141Y015453D03*
X013141Y015453D03*
X014141Y015453D03*
D28*
X027676Y022988D03*
X030676Y022988D03*
X030684Y024720D03*
X030684Y026720D03*
X027684Y026720D03*
X030676Y020988D03*
D29*
X029676Y020988D03*
X029676Y022988D03*
X029684Y024720D03*
X031684Y024720D03*
X031676Y022988D03*
X031676Y020988D03*
X031684Y026720D03*
X029684Y026720D03*
D30*
X027684Y024720D03*
X027676Y020988D03*
D31*
X026263Y021457D03*
X026243Y022445D03*
X026409Y025201D03*
X026389Y026189D03*
X009464Y019138D03*
X009483Y018149D03*
X007669Y018149D03*
X007649Y019138D03*
X039157Y008437D03*
X040145Y008457D03*
D32*
X025657Y005748D03*
X024657Y005748D03*
X023657Y005748D03*
X023657Y004748D03*
X024657Y004748D03*
X025657Y004748D03*
X022657Y004748D03*
X021657Y004748D03*
X020657Y004748D03*
X019657Y004748D03*
X019657Y005748D03*
X020657Y005748D03*
X021657Y005748D03*
X022657Y005748D03*
X018657Y005748D03*
X017657Y005748D03*
X016657Y005748D03*
X015657Y005748D03*
X015657Y004748D03*
X016657Y004748D03*
X017657Y004748D03*
X018657Y004748D03*
X014657Y004748D03*
X013657Y004748D03*
X012657Y004748D03*
X011657Y004748D03*
X011657Y005748D03*
X012657Y005748D03*
X013657Y005748D03*
X014657Y005748D03*
X010657Y005748D03*
X009657Y005748D03*
X008657Y005748D03*
X007657Y005748D03*
X007657Y004748D03*
X008657Y004748D03*
X009657Y004748D03*
X010657Y004748D03*
X006657Y004748D03*
X006657Y005748D03*
X006696Y028685D03*
X006696Y029685D03*
X007696Y029685D03*
X008696Y029685D03*
X009696Y029685D03*
X009696Y028685D03*
X008696Y028685D03*
X007696Y028685D03*
X010696Y028685D03*
X010696Y029685D03*
X011696Y029685D03*
X012696Y029685D03*
X013696Y029685D03*
X013696Y028685D03*
X012696Y028685D03*
X011696Y028685D03*
X014696Y028685D03*
X014696Y029685D03*
X015696Y029685D03*
X016696Y029685D03*
X017696Y029685D03*
X017696Y028685D03*
X016696Y028685D03*
X015696Y028685D03*
X018696Y028685D03*
X018696Y029685D03*
X019696Y029685D03*
X020696Y029685D03*
X021696Y029685D03*
X021696Y028685D03*
X020696Y028685D03*
X019696Y028685D03*
X022696Y028685D03*
X022696Y029685D03*
X023696Y029685D03*
X024696Y029685D03*
X025696Y029685D03*
X025696Y028685D03*
X024696Y028685D03*
X023696Y028685D03*
D33*
X027073Y011787D03*
X028973Y011787D03*
D34*
X024940Y004063D03*
X024192Y004063D03*
X023672Y004043D03*
X022924Y004043D03*
X022003Y003953D03*
X021255Y003953D03*
X021629Y003086D03*
X023298Y003177D03*
X024566Y003197D03*
X019810Y003917D03*
X019062Y003917D03*
X019436Y003051D03*
X010472Y025953D03*
X010846Y026819D03*
X010098Y026819D03*
X012645Y026933D03*
X013393Y026933D03*
X013019Y026067D03*
X018106Y027149D03*
X018854Y027149D03*
X018480Y026283D03*
D35*
X038007Y005069D03*
X037633Y004257D03*
X038381Y004238D03*
D36*
X039302Y003228D03*
X036964Y003520D03*
X036133Y003090D03*
X037180Y005795D03*
X036231Y008370D03*
X035731Y009945D03*
X034031Y011177D03*
X032637Y012283D03*
X033070Y012787D03*
X033472Y013307D03*
X033987Y013834D03*
X033983Y014819D03*
X033224Y015299D03*
X032676Y014787D03*
X031637Y014764D03*
X030448Y014819D03*
X032054Y016142D03*
X031645Y016886D03*
X032165Y018142D03*
X033468Y017295D03*
X034023Y016827D03*
X034015Y015846D03*
X034294Y017811D03*
X035113Y018858D03*
X034389Y019315D03*
X036208Y019685D03*
X036787Y019681D03*
X036802Y020173D03*
X036212Y020177D03*
X035810Y020827D03*
X036735Y021799D03*
X035798Y022783D03*
X035121Y023681D03*
X034409Y022307D03*
X034936Y025244D03*
X036405Y025209D03*
X038086Y026094D03*
X034558Y028634D03*
X033413Y029086D03*
X033204Y028425D03*
X032633Y027744D03*
X032271Y027240D03*
X030161Y025397D03*
X029102Y024157D03*
X028543Y023634D03*
X028857Y023118D03*
X030239Y021724D03*
X029570Y020083D03*
X029684Y019370D03*
X027924Y017602D03*
X026074Y018390D03*
X024759Y017374D03*
X025354Y017134D03*
X025420Y016488D03*
X024070Y015264D03*
X023145Y015264D03*
X022259Y014665D03*
X020747Y015055D03*
X020586Y014500D03*
X019731Y014744D03*
X019791Y013543D03*
X021794Y012752D03*
X022570Y011783D03*
X022669Y011118D03*
X023728Y012453D03*
X023243Y012586D03*
X022696Y012795D03*
X024755Y014275D03*
X025460Y014216D03*
X026271Y013878D03*
X027956Y014268D03*
X024932Y011917D03*
X027180Y010086D03*
X027913Y009504D03*
X029625Y009984D03*
X029865Y009035D03*
X030543Y008539D03*
X031350Y008039D03*
X031987Y007586D03*
X032609Y006984D03*
X033291Y006354D03*
X034015Y005791D03*
X027310Y006771D03*
X026869Y005901D03*
X025873Y006638D03*
X024810Y006783D03*
X024102Y006862D03*
X023566Y007161D03*
X022330Y007209D03*
X021405Y007189D03*
X020720Y006960D03*
X017180Y003894D03*
X018413Y003189D03*
X020511Y003181D03*
X022495Y003177D03*
X023920Y003169D03*
X025731Y003740D03*
X026172Y008823D03*
X033972Y012795D03*
X040657Y013248D03*
X040653Y014256D03*
X040669Y015264D03*
X040684Y016264D03*
X040672Y017260D03*
X040704Y012299D03*
X041133Y009878D03*
X027291Y020153D03*
X024212Y019862D03*
X022417Y020401D03*
X022983Y021378D03*
X024472Y022299D03*
X024208Y023311D03*
X024165Y024295D03*
X022424Y024846D03*
X021602Y024917D03*
X020842Y025453D03*
X021720Y026512D03*
X020775Y027149D03*
X020054Y026913D03*
X017350Y027205D03*
X015523Y027543D03*
X015046Y025964D03*
X014180Y025453D03*
X012590Y025433D03*
X011562Y025464D03*
X011145Y024205D03*
X012621Y023071D03*
X012275Y022153D03*
X014440Y021996D03*
X016558Y021090D03*
X018633Y019795D03*
X020354Y020590D03*
X021015Y021878D03*
X022480Y022992D03*
X025676Y026724D03*
X025039Y026870D03*
X026665Y028614D03*
X027381Y028736D03*
X028200Y030279D03*
X027543Y031256D03*
X030728Y029677D03*
X028779Y026890D03*
X022231Y018779D03*
X022428Y017331D03*
X023145Y016409D03*
X023920Y016433D03*
X016302Y016799D03*
X015645Y017460D03*
X015090Y017055D03*
X012684Y019055D03*
X010783Y019665D03*
X014346Y023988D03*
X010574Y027614D03*
X008590Y027535D03*
X004704Y027472D03*
X006035Y031378D03*
X010354Y031287D03*
X012688Y030586D03*
X013696Y030551D03*
X015180Y030397D03*
X016231Y030413D03*
X005259Y017520D03*
X009460Y012386D03*
X005873Y011504D03*
X005086Y007197D03*
X005865Y005271D03*
X007141Y003838D03*
X009165Y003827D03*
X011172Y003827D03*
X012672Y003799D03*
X015109Y003768D03*
X009743Y007315D03*
X009342Y006712D03*
X013350Y011827D03*
X013495Y013161D03*
X013625Y014291D03*
X015633Y012775D03*
X016239Y013201D03*
X040578Y023071D03*
D37*
X019995Y018610D03*
X019279Y016917D03*
M02*
